:FULLY-SPECIFIED
:FORCE-ALL-JOINTS-BE-3DOF
:DEGREES
3058
root -1.64903 15.9803 -34.0554 9.27792 -9.17976 0.277504
lfemur -40.22 5.53088 -2.81675
ltibia 67.3159 0 0
lfoot -1.58674 7.80021 0.251295
ltoes -28.7003 0 0
rfemur -39.2187 -8.56086 29.2622
rtibia 61.7552 0 0
rfoot -20.6217 -30.6532 0.0157813
rtoes -1.32699 0 0
lowerback 13.4935 0.193566 -2.00702
upperback -1.22281 0.075717 1.67781
thorax -8.90564 0.180102 2.92364
lowerneck 4.56275 -10.5502 -12.6496
upperneck -4.55013 -14.4845 10.5675
head -0.348105 -7.31772 5.26442
lclavicle -2.38601e-14 1.1377e-14 -2.58013e-31
lhumerus 31.0303 -37.0248 80.6107
lradius 64.941 0 0
lwrist -9.00617 0 0
lhand -28.3672 29.3991 0.00231047
lfingers 7.12502 0 0
lthumb -1.74052 59.3717 0.00223357
rclavicle -2.38601e-14 1.1377e-14 -2.58013e-31
rhumerus 45.6203 38.0331 -38.7183
rradius 95.1122 0 0
rwrist -49.2925 0 0
rhand -5.89052 -27.7272 0.00288574
rfingers 7.12502 0 0
rthumb 19.9374 -56.7206 0.00361432
3059
root -1.61281 15.9878 -34.0422 9.22888 -9.15005 0.262195
lfemur -40.1387 5.47646 -2.9229
ltibia 66.7288 0 0
lfoot -1.93216 7.58513 0.272775
ltoes -29.0515 0 0
rfemur -39.0193 -8.40504 29.1102
rtibia 61.7596 0 0
rfoot -20.6145 -30.5196 0.016699
rtoes -1.68769 0 0
lowerback 13.4666 0.225714 -1.95325
upperback -1.23177 0.126828 1.66524
thorax -8.90074 0.201643 2.86776
lowerneck 4.47779 -10.4194 -12.5521
upperneck -4.4499 -14.3019 10.4624
head -0.335825 -7.22364 5.22746
lclavicle -2.39492e-14 1.06527e-14 -2.47361e-31
lhumerus 30.1896 -37.0794 80.8811
lradius 65.2054 0 0
lwrist -8.8027 0 0
lhand -28.3537 29.5277 0.00262524
lfingers 7.12502 0 0
lthumb -1.72752 59.5004 0.00253814
rclavicle -2.39492e-14 1.06527e-14 -2.47361e-31
rhumerus 44.3691 38.4699 -39.4234
rradius 95.5545 0 0
rwrist -49.1187 0 0
rhand -5.94942 -27.6664 0.00448942
rfingers 7.12502 0 0
rthumb 19.8807 -56.6643 0.00546416
3060
root -1.5766 15.9952 -34.0291 9.17026 -9.05495 0.250262
lfemur -40.0265 5.41222 -3.03107
ltibia 66.1034 0 0
lfoot -2.31622 7.33854 0.295718
ltoes -29.4459 0 0
rfemur -38.8008 -8.23785 28.9357
rtibia 61.7551 0 0
rfoot -20.5995 -30.3721 0.0178461
rtoes -2.08286 0 0
lowerback 13.4344 0.258241 -1.89584
upperback -1.24113 0.179051 1.65223
thorax -8.8933 0.223512 2.8092
lowerneck 4.38721 -10.2811 -12.4497
upperneck -4.34105 -14.1089 10.351
head -0.321964 -7.12425 5.18856
lclavicle -2.40741e-14 9.87725e-15 -2.42011e-31
lhumerus 29.2628 -37.1735 81.1803
lradius 65.4846 0 0
lwrist -8.58392 0 0
lhand -28.3401 29.6692 0.00291478
lfingers 7.12502 0 0
lthumb -1.71436 59.642 0.0028183
rclavicle -2.40741e-14 9.87725e-15 -2.42011e-31
rhumerus 42.9907 38.9643 -40.1906
rradius 96.0414 0 0
rwrist -48.9128 0 0
rhand -6.00613 -27.5947 0.00607378
rfingers 7.12502 0 0
rthumb 19.8261 -56.597 0.00727469
3061
root -1.54038 16.0027 -34.0159 9.10117 -8.88586 0.242157
lfemur -39.8797 5.33736 -3.14076
ltibia 65.4392 0 0
lfoot -2.74134 7.0579 0.319755
ltoes -29.8865 0 0
rfemur -38.5624 -8.05885 28.7372
rtibia 61.7405 0 0
rfoot -20.5757 -30.2099 0.0192114
rtoes -2.5142 0 0
lowerback 13.3964 0.290945 -1.83475
upperback -1.25088 0.232124 1.63884
thorax -8.88302 0.245583 2.74805
lowerneck 4.29095 -10.1353 -12.3425
upperneck -4.22323 -13.9055 10.2332
head -0.306411 -7.0196 5.14777
lclavicle -2.42389e-14 9.04958e-15 -2.42002e-31
lhumerus 28.2438 -37.3112 81.5117
lradius 65.7784 0 0
lwrist -8.34941 0 0
lhand -28.3264 29.8244 0.00317245
lfingers 7.12502 0 0
lthumb -1.70114 59.7973 0.00306762
rclavicle -2.42389e-14 9.04958e-15 -2.42002e-31
rhumerus 41.4743 39.5186 -41.027
rradius 96.5756 0 0
rwrist -48.672 0 0
rhand -6.05987 -27.5111 0.00762604
rfingers 7.12502 0 0
rthumb 19.7743 -56.5176 0.00902954
3062
root -1.50417 16.0101 -34.0028 9.02076 -8.63421 0.238263
lfemur -39.6949 5.25109 -3.25147
ltibia 64.7357 0 0
lfoot -3.20996 6.74068 0.344389
ltoes -30.3762 0 0
rfemur -38.3033 -7.86765 28.513
rtibia 61.7146 0 0
rfoot -20.5421 -30.0322 0.0207708
rtoes -2.98344 0 0
lowerback 13.352 0.323629 -1.76991
upperback -1.261 0.285784 1.62511
thorax -8.8696 0.267731 2.68439
lowerneck 4.18894 -9.98209 -12.2306
upperneck -4.09614 -13.6918 10.109
head -0.289055 -6.90972 5.10513
lclavicle -2.44477e-14 8.16866e-15 -2.47144e-31
lhumerus 27.126 -37.4966 81.8794
lradius 66.0868 0 0
lwrist -8.09875 0 0
lhand -28.3127 29.994 0.00339163
lfingers 7.12502 0 0
lthumb -1.68793 59.967 0.00327971
rclavicle -2.44477e-14 8.16866e-15 -2.47144e-31
rhumerus 39.8077 40.1347 -41.941
rradius 97.1593 0 0
rwrist -48.3934 0 0
rhand -6.10986 -27.4145 0.00913134
rfingers 7.12502 0 0
rthumb 19.7262 -56.4251 0.0107105
